<?xml version="1.0" encoding="UTF-8" standalone="no"?>
<svg
   xmlns:dc="http://purl.org/dc/elements/1.1/"
   xmlns:cc="http://creativecommons.org/ns#"
   xmlns:rdf="http://www.w3.org/1999/02/22-rdf-syntax-ns#"
   xmlns:svg="http://www.w3.org/2000/svg"
   xmlns="http://www.w3.org/2000/svg"
   xmlns:sodipodi="http://sodipodi.sourceforge.net/DTD/sodipodi-0.dtd"
   xmlns:inkscape="http://www.inkscape.org/namespaces/inkscape"
   sodipodi:docname="ArrowRight.svg"
   inkscape:version="1.0 (4035a4fb49, 2020-05-01)"
   id="svg8"
   version="1.1"
   viewBox="0 0 64 64"
   height="64mm"
   width="64mm">
  <defs
     id="defs2" />
  <sodipodi:namedview
     inkscape:window-maximized="0"
     inkscape:window-y="10"
     inkscape:window-x="402"
     inkscape:window-height="977"
     inkscape:window-width="1424"
     showgrid="false"
     inkscape:document-rotation="0"
     inkscape:current-layer="layer1"
     inkscape:document-units="mm"
     inkscape:cy="149.80327"
     inkscape:cx="113.46858"
     inkscape:zoom="1.979899"
     inkscape:pageshadow="2"
     inkscape:pageopacity="0.0"
     borderopacity="1.0"
     bordercolor="#666666"
     pagecolor="#ffffff"
     id="base" />
  <metadata
     id="metadata5">
    <rdf:RDF>
      <cc:Work
         rdf:about="">
        <dc:format>image/svg+xml</dc:format>
        <dc:type
           rdf:resource="http://purl.org/dc/dcmitype/StillImage" />
        <dc:title></dc:title>
      </cc:Work>
    </rdf:RDF>
  </metadata>
  <g
     transform="translate(-0.97597141,-1.6234084)"
     id="layer1"
     inkscape:groupmode="layer"
     inkscape:label="Layer 1">
    <g
       style="fill:#ffffff;fill-opacity:1;stroke:#000000;stroke-width:0.39704;stroke-miterlimit:4;stroke-dasharray:none;stroke-opacity:1"
       transform="matrix(0,-0.67029939,-0.66458982,0,64.975971,65.898063)"
       id="g897">
      <g
         style="fill:#ffffff;fill-opacity:1;stroke:#000000;stroke-width:0.39704;stroke-miterlimit:4;stroke-dasharray:none;stroke-opacity:1"
         id="g839">
	<g
   style="fill:#ffffff;fill-opacity:1;stroke:#000000;stroke-width:0.39704;stroke-miterlimit:4;stroke-dasharray:none;stroke-opacity:1"
   id="g837">
		<path
   style="fill:#ffffff;fill-opacity:1;stroke:#000000;stroke-width:0.39704;stroke-miterlimit:4;stroke-dasharray:none;stroke-opacity:1"
   d="m 44.516,50.7 c -2.2,6.6 -1,13.3 -1.4,20 0,0.3 0.7,0.8 1.1,0.9 1,0.3 1.8,-0.1 2.4,-0.6 2,-1.9 2.9,-4.1 3.1,-6.4 0.6,-5.5 1.4,-11.1 0.8,-16.6 0.1,-0.7 0.2,-1.4 0.2,-2.1 0.2,-2.8 0.3,-5.6 0.2,-8.3 2,2.1 4,3.9 6.4,5.5 1,0.7 2.3,0.8 3.5,-0.6 1.1,-1.2 1.3,-2.6 0.6,-3.7 -1.3,-1.8 -2.6,-3.6 -4.2,-5.2 -2.6,-2.5 -5.4,-4.7 -8.1,-7.1 v 0 0 c -0.5,-1.1 -1.8,-1.5 -2.9,-1 l -1.1,0.6 c -5.9,3 -9.5,8.4 -14.3,12.5 -0.2,0.2 -0.1,1 0.2,1.4 0.5,0.9 1.3,1.2 2.1,1.2 2.7,0.2 4.9,-0.8 6.6,-2.2 1.4,-1.2 2.9,-2.3 4.3,-3.4 -0.2,1.3 -0.3,2.6 -0.3,3.9 0.1,3.8 0.5,7.5 0.8,11.2 z"
   id="path833" />

		<path
   style="fill:#ffffff;fill-opacity:1;stroke:#000000;stroke-width:0.39704;stroke-miterlimit:4;stroke-dasharray:none;stroke-opacity:1"
   d="m 92.316,52.9 c -1.7,6.3 -4.6,12.6 -8.9,18.3 -0.5,0.7 -1.1,1.4 -1.7,2.1 l -0.9,1 -0.4,0.5 -0.5,0.5 c -0.6,0.6 -1.3,1.3 -1.9,1.9 l -0.5,0.5 -0.6,0.4 -1.1,0.9 c -1.3,1.2 -2.9,2.2 -4.4,3.3 -0.7,0.5 -1.6,0.9 -2.4,1.4 -0.8,0.4 -1.6,1 -2.4,1.3 -3.9,2 -8.2,3.2 -12.6,3.9 -1.1,0.1 -2.2,0.4 -3.3,0.4 l -1.6,0.1 h -0.8 -0.4 -0.2 -0.1 v 0 l -3.4,-0.2 -0.9,-0.1 c -0.3,0 -0.5,-0.1 -0.8,-0.1 l -1.6,-0.3 -1.6,-0.3 c -0.5,-0.1 -1.1,-0.3 -1.6,-0.4 l -1.6,-0.4 c -0.5,-0.1 -1.1,-0.3 -1.6,-0.5 l -3,-1.2 c -1,-0.5 -2,-1 -2.9,-1.4 -3.8,-2.1 -7.3,-4.7 -10.4,-7.8 -3,-3.1 -5.5,-6.8 -7.4,-10.6 l -0.7,-1.5 -0.4,-0.7 -0.3,-0.8 -1.1,-3.1 -0.8,-3.1 c -0.1,-0.3 -0.1,-0.5 -0.2,-0.8 l -0.1,-0.8 -0.2,-1.6 -0.3,-1.6 -0.1,-1.6 -0.1,-1.6 V 48.1 48 47.8 47.4 l 0.2,-3.5 c 0.1,-1.1 0.3,-2.1 0.4,-3.1 0.7,-4.2 2.1,-8.4 4.1,-12.3 2.2,-3.7 4.9,-7.1 8,-10.1 9.9,-9.4 24.6,-13.2 37.8,-9.8 l 2.5,0.6 2.4,0.9 1.2,0.4 c 0.4,0.2 0.8,0.4 1.2,0.5 l 2.3,1.1 c 2.9,1.7 5.8,3.5 8.3,5.8 1.3,1.1 2.4,2.4 3.6,3.6 0.6,0.6 1.1,1.3 1.6,2 0.5,0.7 1.1,1.3 1.5,2 0.9,1.4 1.9,2.8 2.6,4.4 0.4,0.8 0.8,1.5 1.2,2.3 l 0.9,2.4 c 2.9,7.2 3.3,14 5.2,13.4 0.8,-0.3 1.4,-1.9 1.8,-4.7 0,-1.4 0,-3 -0.1,-4.9 -0.2,-0.9 -0.3,-1.9 -0.5,-2.9 -0.1,-0.5 -0.2,-1 -0.4,-1.6 -0.2,-0.5 -0.4,-1.1 -0.5,-1.6 -1.2,-3.9 -3.2,-7.6 -5.4,-11.1 -1.2,-1.7 -2.3,-3.4 -3.8,-4.9 l -1,-1.2 c -0.3,-0.4 -0.7,-0.8 -1.1,-1.1 l -2.3,-2.1 c -3.2,-2.7 -6.6,-5.1 -10.4,-6.9 -1.8,-1 -3.8,-1.6 -5.8,-2.4 -1,-0.4 -2,-0.5 -3,-0.8 -1,-0.3 -2,-0.6 -3.1,-0.7 l -2.6,-0.4 -1.3,-0.2 -0.9,-0.4 -2.3,-0.1 h -0.6 -0.3 -0.2 -0.2 v 0 0 h -0.1 l -1.2,0.1 c -1.7,0.1 -3.4,0.1 -5,0.4 -1.7,0.3 -3.3,0.5 -4.9,1 -6.5,1.6 -12.6,4.6 -17.9,8.8 -5.2,4.2 -9.6,9.4 -12.6,15.3 l -1.1,2.2 c -0.3,0.8 -0.7,1.5 -1,2.3 l -0.7,2.4 -0.4,1.2 c -0.1,0.4 -0.2,0.8 -0.3,1.2 l -0.6,2.4 c -0.1,0.4 -0.2,0.8 -0.3,1.2 l -0.2,1.3 c -0.2,1.7 -0.5,3.4 -0.5,4.9 -0.7,5.8 -0.2,12 1.5,17.8 1.7,5.8 4.5,11.3 8.4,16.1 3.8,4.8 8.6,8.8 14,11.8 l 4.2,2 c 1.4,0.6 2.9,1.1 4.3,1.6 1.5,0.4 3,0.8 4.5,1.2 1.5,0.3 3.2,0.5 4.7,0.8 l 0.6,0.1 h 0.5 l 1.1,0.1 2.1,0.1 h 0.5 0.3 0.3 0.1 0.1 l 1.2,-0.1 2.3,-0.1 1.2,-0.1 c 0.4,0 0.8,-0.1 1.2,-0.2 l 2.3,-0.4 c 1.5,-0.2 3,-0.6 4.5,-1 6,-1.6 11.6,-4.5 16.5,-8.2 4.9,-3.8 9.1,-8.4 12.2,-13.7 0.4,-0.7 0.8,-1.3 1.2,-2 l 1,-2.1 c 0.3,-0.7 0.7,-1.4 1,-2.1 l 0.8,-2.2 c 0.3,-0.7 0.5,-1.4 0.8,-2.2 l 0.6,-2.2 0.6,-2.2 0.4,-2.4 c 0.5,-2.4 -0.2,-5.5 -0.6,-6.5 -1.1,-2 -1.9,0.5 -2.8,4.3 z"
   id="path835" />

	</g>

</g>
      <g
         style="fill:#ffffff;fill-opacity:1;stroke:#000000;stroke-width:0.39704;stroke-miterlimit:4;stroke-dasharray:none;stroke-opacity:1"
         id="g841">
</g>
      <g
         style="fill:#ffffff;fill-opacity:1;stroke:#000000;stroke-width:0.39704;stroke-miterlimit:4;stroke-dasharray:none;stroke-opacity:1"
         id="g843">
</g>
      <g
         style="fill:#ffffff;fill-opacity:1;stroke:#000000;stroke-width:0.39704;stroke-miterlimit:4;stroke-dasharray:none;stroke-opacity:1"
         id="g845">
</g>
      <g
         style="fill:#ffffff;fill-opacity:1;stroke:#000000;stroke-width:0.39704;stroke-miterlimit:4;stroke-dasharray:none;stroke-opacity:1"
         id="g847">
</g>
      <g
         style="fill:#ffffff;fill-opacity:1;stroke:#000000;stroke-width:0.39704;stroke-miterlimit:4;stroke-dasharray:none;stroke-opacity:1"
         id="g849">
</g>
      <g
         style="fill:#ffffff;fill-opacity:1;stroke:#000000;stroke-width:0.39704;stroke-miterlimit:4;stroke-dasharray:none;stroke-opacity:1"
         id="g851">
</g>
      <g
         style="fill:#ffffff;fill-opacity:1;stroke:#000000;stroke-width:0.39704;stroke-miterlimit:4;stroke-dasharray:none;stroke-opacity:1"
         id="g853">
</g>
      <g
         style="fill:#ffffff;fill-opacity:1;stroke:#000000;stroke-width:0.39704;stroke-miterlimit:4;stroke-dasharray:none;stroke-opacity:1"
         id="g855">
</g>
      <g
         style="fill:#ffffff;fill-opacity:1;stroke:#000000;stroke-width:0.39704;stroke-miterlimit:4;stroke-dasharray:none;stroke-opacity:1"
         id="g857">
</g>
      <g
         style="fill:#ffffff;fill-opacity:1;stroke:#000000;stroke-width:0.39704;stroke-miterlimit:4;stroke-dasharray:none;stroke-opacity:1"
         id="g859">
</g>
      <g
         style="fill:#ffffff;fill-opacity:1;stroke:#000000;stroke-width:0.39704;stroke-miterlimit:4;stroke-dasharray:none;stroke-opacity:1"
         id="g861">
</g>
      <g
         style="fill:#ffffff;fill-opacity:1;stroke:#000000;stroke-width:0.39704;stroke-miterlimit:4;stroke-dasharray:none;stroke-opacity:1"
         id="g863">
</g>
      <g
         style="fill:#ffffff;fill-opacity:1;stroke:#000000;stroke-width:0.39704;stroke-miterlimit:4;stroke-dasharray:none;stroke-opacity:1"
         id="g865">
</g>
      <g
         style="fill:#ffffff;fill-opacity:1;stroke:#000000;stroke-width:0.39704;stroke-miterlimit:4;stroke-dasharray:none;stroke-opacity:1"
         id="g867">
</g>
      <g
         style="fill:#ffffff;fill-opacity:1;stroke:#000000;stroke-width:0.39704;stroke-miterlimit:4;stroke-dasharray:none;stroke-opacity:1"
         id="g869">
</g>
    </g>
  </g>
</svg>
