<?xml version="1.0" encoding="UTF-8" standalone="no"?>
<svg
   xmlns:dc="http://purl.org/dc/elements/1.1/"
   xmlns:cc="http://creativecommons.org/ns#"
   xmlns:rdf="http://www.w3.org/1999/02/22-rdf-syntax-ns#"
   xmlns:svg="http://www.w3.org/2000/svg"
   xmlns="http://www.w3.org/2000/svg"
   xmlns:sodipodi="http://sodipodi.sourceforge.net/DTD/sodipodi-0.dtd"
   xmlns:inkscape="http://www.inkscape.org/namespaces/inkscape"
   inkscape:version="1.0 (4035a4fb49, 2020-05-01)"
   sodipodi:docname="LetterCInk.svg"
   id="svg865"
   version="1.1"
   preserveAspectRatio="xMidYMid meet"
   class="iconify iconify--emojione"
   role="img"
   aria-hidden="true"
   viewBox="0 0 64 64"
   height="64px"
   width="64px">
  <metadata
     id="metadata871">
    <rdf:RDF>
      <cc:Work
         rdf:about="">
        <dc:format>image/svg+xml</dc:format>
        <dc:type
           rdf:resource="http://purl.org/dc/dcmitype/StillImage" />
        <dc:title></dc:title>
      </cc:Work>
    </rdf:RDF>
  </metadata>
  <defs
     id="defs869" />
  <sodipodi:namedview
     inkscape:current-layer="svg865"
     inkscape:window-maximized="0"
     inkscape:window-y="0"
     inkscape:window-x="0"
     inkscape:cy="36.925696"
     inkscape:cx="32"
     inkscape:zoom="8.1206794"
     inkscape:guide-bbox="true"
     showguides="true"
     showgrid="false"
     id="namedview867"
     inkscape:window-height="956"
     inkscape:window-width="1566"
     inkscape:pageshadow="2"
     inkscape:pageopacity="0"
     guidetolerance="10"
     gridtolerance="10"
     objecttolerance="10"
     borderopacity="1"
     bordercolor="#666666"
     pagecolor="#ffffff">
    <sodipodi:guide
       id="guide1450"
       orientation="1,0"
       position="32.017025,58.704877" />
    <sodipodi:guide
       id="guide1452"
       orientation="0,-1"
       position="19.579642,31.982975" />
  </sodipodi:namedview>
  <path
     d="M 31.855469 2 A 30 30 0 0 0 2 32 A 30 30 0 0 0 32 62 A 30 30 0 0 0 62 32 A 30 30 0 0 0 32 2 A 30 30 0 0 0 31.855469 2 z M 34.865234 14.005859 C 40.553972 13.914337 45.84949 15.985743 46.171875 19.310547 C 46.419459 21.863905 45.05568 22.589041 42.179688 21.431641 C 38.22961 19.841992 35.724771 19.498668 33.128906 20.189453 C 24.148961 22.579101 22.31187 37.534974 30.376953 42.587891 C 33.132181 44.314091 38.161134 44.027885 41.042969 41.980469 C 43.74665 40.059623 47.162495 40.29563 47.464844 42.423828 C 47.765873 44.542739 46.049257 46.802816 42.90625 48.425781 C 39.394153 50.239333 30.551625 50.693349 26.662109 49.259766 C 22.926586 47.882941 19.630493 44.928817 17.9375 41.439453 C 16.763779 39.020344 16.472643 37.363258 16.501953 33.261719 C 16.563631 24.632326 20.189143 18.685593 27.294922 15.556641 C 29.613673 14.535604 32.279445 14.04746 34.865234 14.005859 z "
     style="fill:#ffffff;fill-opacity:1;stroke:#000000;stroke-width:0.566929;stroke-miterlimit:4;stroke-dasharray:none;stroke-opacity:1"
     id="circle861" />
</svg>
